<svg width="40" height="40" viewBox="0 0 40 40" fill="none" xmlns="http://www.w3.org/2000/svg">
  <path d="M20.9253 32.9636H26.3306V23.2804H23.2034V16.7203H26.3306V7.03711H20.9253C18.3023 7.03711 16.1682 9.1712 16.1682 11.7942V28.2065C16.1682 30.8295 18.3023 32.9636 20.9253 32.9636ZM18.512 11.7942C18.512 10.4636 19.5944 9.38086 20.9253 9.38086H23.9871V14.3766H20.8597V25.6241H23.9871V30.6196H20.9253C19.5947 30.6196 18.512 29.5371 18.512 28.2065V11.7942Z" />
  <path d="M4.76837 0V4.69116H2.42188V7.03491H4.76837V11.7596H2.42188V14.1034H4.76837V18.8281H2.42188V21.1719H4.76837V25.8966H2.42188V28.2404H4.76837V32.9651H2.42188V35.3088H4.76837V40H37.7307V0H4.76837ZM35.387 37.6562H7.11212V35.3088H9.45862V32.9651H7.11212V28.2404H9.45862V25.8966H7.11212V21.1719H9.45862V18.8281H7.11212V14.1034H9.45862V11.7596H7.11212V7.03491H9.45862V4.69116H7.11212V2.34375H35.387V37.6562Z" />
</svg>