<svg width="40" height="40" viewBox="0 0 40 40" fill="none" xmlns="http://www.w3.org/2000/svg">
  <path
    d="M40 16.6406H37.6562V7.1875H35.3125V2.5H2.34375V7.1875H0V37.8125H37.6562V28.3594H40V16.6406ZM4.6875 4.84375H32.9688V7.1875H4.6875V4.84375ZM35.3125 35.4688H2.34375V9.53125H35.3125V16.6406H32.9688C29.7344 16.6406 27.1094 19.2734 27.1094 22.5C27.1094 25.7266 29.7422 28.3594 32.9688 28.3594H35.3125V35.4688ZM37.6562 26.0156H32.9609C31.0234 26.0156 29.4453 24.4375 29.4453 22.5C29.4453 20.5625 31.0234 18.9844 32.9609 18.9844H37.6562V26.0156Z" />
  <path d="M32.9609 21.3281H35.3047V23.6719H32.9609V21.3281Z" />
</svg>