<svg width="40" height="40" viewBox="0 0 40 40" fill="none" xmlns="http://www.w3.org/2000/svg">
  <path
    d="M19.2605 40V35.2891L18.9168 35.2812C16.9012 35.2188 15.0183 34.3828 13.6121 32.9375C12.2137 31.4766 11.4402 29.5703 11.4324 27.5547V26.2578C11.4324 25.5938 11.9715 25.0469 12.6433 25.0469C13.3074 25.0469 13.8543 25.5859 13.8543 26.2578V27.5547C13.8543 30.4922 16.2449 32.8828 19.1824 32.8828H21.7683C23.9558 32.8828 25.9012 31.5703 26.7137 29.5312C27.8074 26.8047 26.4715 23.6953 23.7449 22.6016L16.2996 19.625C13.4402 18.4844 11.534 15.7656 11.4324 12.6875C11.2996 8.4375 14.659 4.85938 18.9168 4.72656L19.2605 4.71875V0H21.6746V4.71094L22.0183 4.71875C24.034 4.78125 25.9168 5.61719 27.323 7.0625C28.7293 8.50781 29.5027 10.4141 29.5027 12.4297V13.7266C29.5027 14.3906 28.9637 14.9375 28.2918 14.9375C27.6277 14.9375 27.0808 14.3984 27.0808 13.7266V12.4297C27.0808 9.49219 24.6902 7.10156 21.7527 7.10156H19.1746C16.9871 7.10156 15.0418 8.41406 14.2293 10.4531C13.1355 13.1797 14.4715 16.2891 17.198 17.3828L24.6433 20.3594C27.5027 21.5 29.409 24.2188 29.5105 27.2969C29.6433 31.5547 26.2918 35.1328 22.034 35.2656L21.6902 35.2734V40H19.2605Z" />
</svg>