<svg width="40" height="40" viewBox="0 0 40 40" fill="none" xmlns="http://www.w3.org/2000/svg">
  <path
    d="M35.2597 9.38797C37.848 9.38797 39.9537 7.28227 39.9537 4.69398C39.9537 2.1057 37.848 0 35.2597 0C32.6714 0 30.5657 2.1057 30.5657 4.69398C30.5657 5.57789 30.8116 6.40531 31.2381 7.11203L22.1375 16.2126C20.7295 15.1517 18.9793 14.522 17.0846 14.522C16.2729 14.522 15.4879 14.6379 14.7447 14.8534L12.4707 9.51C13.8172 8.68391 14.7174 7.19836 14.7174 5.50625C14.7174 2.91797 12.6117 0.812266 10.0234 0.812266C7.43516 0.812266 5.32953 2.91805 5.32953 5.50625C5.32953 8.09445 7.43524 10.2002 10.0235 10.2002C10.0878 10.2002 10.1516 10.198 10.2153 10.1954L12.6071 15.8155C10.2441 17.3069 8.67094 19.9409 8.67094 22.9357C8.67094 24.8304 9.30071 26.5806 10.3616 27.9886L7.09953 31.2506C6.40578 30.8455 5.6 30.6121 4.74031 30.6121C2.15203 30.6121 0.0463295 32.7178 0.0463295 35.3061C0.0463295 37.8944 2.15203 40 4.74031 40C7.3286 40 9.4343 37.8943 9.4343 35.306C9.4343 34.4259 9.19039 33.602 8.76727 32.8973L12.0171 29.6475C13.4276 30.7151 15.1834 31.3493 17.0847 31.3493C19.666 31.3493 21.9791 30.1804 23.5238 28.3446L28.762 30.8152C28.4821 31.8429 28.5586 32.927 28.9906 33.9173C29.492 35.0665 30.4109 35.9516 31.5781 36.4097C32.134 36.6279 32.7144 36.7367 33.2942 36.7367C33.9316 36.7367 34.5683 36.6051 35.1701 36.3425C36.3193 35.8412 37.2045 34.9222 37.6625 33.7551C38.1206 32.588 38.0967 31.3123 37.5953 30.163C36.5603 27.7908 33.7882 26.7029 31.4159 27.7378C30.8463 27.9863 30.3418 28.3377 29.9218 28.7708L24.7763 26.344C25.2401 25.3015 25.4984 24.1483 25.4984 22.9356C25.4984 21.0344 24.8641 19.2786 23.7966 17.8681L32.9099 8.75477C33.6015 9.15664 34.4038 9.38797 35.2597 9.38797ZM7.67328 5.50625C7.67328 4.21031 8.72758 3.15602 10.0235 3.15602C11.3195 3.15602 12.3738 4.21031 12.3738 5.50625C12.3738 6.80219 11.3195 7.85648 10.0235 7.85648C8.72758 7.85648 7.67328 6.80219 7.67328 5.50625ZM33.2895 29.69C34.1962 29.69 35.062 30.2176 35.447 31.1003C35.6981 31.6757 35.71 32.3145 35.4807 32.8988C35.2514 33.4832 34.8082 33.9433 34.2327 34.1943C33.6573 34.4454 33.0184 34.4573 32.4342 34.228C31.8499 33.9986 31.3899 33.5555 31.1388 32.98C30.8877 32.4046 30.8758 31.7659 31.1051 31.1816C31.4365 30.2964 32.3527 29.6787 33.2895 29.69ZM35.2597 2.34375C36.5556 2.34375 37.6099 3.39805 37.6099 4.69398C37.6099 5.98992 36.5556 7.04422 35.2597 7.04422C33.9638 7.04422 32.9095 5.98992 32.9095 4.69398C32.9095 3.39805 33.9638 2.34375 35.2597 2.34375ZM4.74031 37.6562C3.44438 37.6562 2.39008 36.602 2.39008 35.306C2.39008 34.0101 3.44438 32.9558 4.74031 32.9558C6.03625 32.9558 7.09055 34.0101 7.09055 35.306C7.09055 36.602 6.03625 37.6562 4.74031 37.6562ZM17.0847 29.0055C13.7377 29.0055 11.0148 26.2826 11.0148 22.9356C11.0148 19.5887 13.7377 16.8657 17.0847 16.8657C20.4316 16.8657 23.1545 19.5887 23.1545 22.9356C23.1545 24.1157 22.8148 25.2174 22.2298 26.1504C22.1868 26.2053 22.1487 26.2651 22.1152 26.3288C21.0231 27.9427 19.1757 29.0055 17.0847 29.0055Z" />
</svg>