<svg width="40" height="40" viewBox="0 0 40 40" fill="none" xmlns="http://www.w3.org/2000/svg">
  <g clip-path="url(#clip0_3245_13844)">
    <path d="M20 19.1614C23.6156 19.1614 26.5572 16.2202 26.5572 12.6051C26.5572 8.98992 23.6156 6.04883 20 6.04883C16.3844 6.04883 13.4428 8.98992 13.4428 12.6051C13.4428 16.2202 16.3844 19.1614 20 19.1614ZM20 8.39227C22.3233 8.39227 24.2134 10.2822 24.2134 12.6051C24.2134 14.928 22.3234 16.818 20 16.818C17.6766 16.818 15.7866 14.928 15.7866 12.6051C15.7866 10.2822 17.6767 8.39227 20 8.39227Z" />
    <path d="M12.8603 24.3852C14.6365 26.7897 13.9229 25.8546 19.0389 33.1589C19.5039 33.8254 20.4927 33.8285 20.9604 33.1599C26.0995 25.8209 25.3924 26.7505 27.1397 24.3852C28.9096 21.9889 30.7399 19.5111 31.7429 16.6075C33.1945 12.4043 32.567 8.24547 29.9762 4.89703C29.9761 4.89703 29.9761 4.89695 29.976 4.89695C27.6027 1.83062 23.8734 0 20 0C16.1266 0 12.3973 1.83062 10.0239 4.89711C7.43305 8.24555 6.80555 12.4045 8.25727 16.6077C9.26008 19.5112 11.0904 21.989 12.8603 24.3852ZM11.8775 6.33117C13.8102 3.83422 16.8466 2.34344 20 2.34344C23.1534 2.34344 26.1898 3.83422 28.1225 6.33117L28.1223 6.33109C30.2135 9.03359 30.7124 12.4116 29.5274 15.8427C28.6416 18.4073 26.9196 20.7385 25.2544 22.993C23.9578 24.7482 24.3459 24.2113 20 30.4409C15.6587 24.2176 16.0418 24.7477 14.7456 22.993C13.0804 20.7385 11.3584 18.4073 10.4726 15.8427C9.28758 12.4115 9.78648 9.03359 11.8775 6.33117Z" />
    <path d="M13.8228 29.466C13.4772 28.919 12.7534 28.7555 12.2062 29.1012L8.87422 31.2057C8.14734 31.6647 8.14664 32.7274 8.87422 33.1869L19.3742 39.8188C19.7565 40.0603 20.2437 40.0602 20.6259 39.8188L31.1259 33.1869C31.8528 32.7278 31.8534 31.6652 31.1259 31.2057L27.7938 29.1012C27.2465 28.7556 26.5228 28.919 26.1773 29.466C25.8316 30.0131 25.995 30.7368 26.5422 31.0824L28.3058 32.1963L20 37.4422L11.6943 32.1963L13.4579 31.0824C14.0051 30.7369 14.1684 30.0132 13.8228 29.466Z" />
  </g>
  <defs>
    <clipPath id="clip0_3245_13844">
      <rect width="40" height="40" />
    </clipPath>
  </defs>
</svg>