<svg width="12" height="12" viewBox="0 0 12 12" fill="none" xmlns="http://www.w3.org/2000/svg">
  <path d="M4.34375 0C5.57292 0.0208333 6.59375 0.447917 7.40625 1.28125C8.21875 2.09375 8.63542 3.11458 8.65625 4.34375C8.65625 4.88542 8.5625 5.39583 8.375 5.875C8.20833 6.35417 7.95833 6.78125 7.625 7.15625L7.8125 7.34375H8.34375L11.6562 10.6562L10.6562 11.6562L7.34375 8.34375V7.8125L7.15625 7.625C6.78125 7.95833 6.35417 8.21875 5.875 8.40625C5.39583 8.57292 4.88542 8.65625 4.34375 8.65625C3.11458 8.63542 2.08333 8.21875 1.25 7.40625C0.4375 6.59375 0.0208333 5.57292 0 4.34375C0.0208333 3.11458 0.4375 2.09375 1.25 1.28125C2.08333 0.447917 3.11458 0.0208333 4.34375 0ZM4.34375 1.34375C3.48958 1.36458 2.78125 1.65625 2.21875 2.21875C1.65625 2.78125 1.375 3.48958 1.375 4.34375C1.375 5.19792 1.65625 5.90625 2.21875 6.46875C2.78125 7.03125 3.48958 7.3125 4.34375 7.3125C5.19792 7.3125 5.90625 7.03125 6.46875 6.46875C7.03125 5.90625 7.3125 5.19792 7.3125 4.34375C7.3125 3.48958 7.03125 2.78125 6.46875 2.21875C5.90625 1.65625 5.19792 1.36458 4.34375 1.34375Z" />
</svg>
