<svg width="40" height="40" viewBox="0 0 40 40" fill="none" xmlns="http://www.w3.org/2000/svg">
  <path fill-rule="evenodd" clip-rule="evenodd"
    d="M7.05882 25.2941C9.65781 25.2941 11.7647 23.1872 11.7647 20.5882C11.7647 17.9893 9.65781 15.8824 7.05882 15.8824C4.45984 15.8824 2.35294 17.9893 2.35294 20.5882C2.35294 23.1872 4.45984 25.2941 7.05882 25.2941ZM7.05882 27.6471C10.9573 27.6471 14.1176 24.4867 14.1176 20.5882C14.1176 16.6898 10.9573 13.5294 7.05882 13.5294C3.16034 13.5294 0 16.6898 0 20.5882C0 24.4867 3.16034 27.6471 7.05882 27.6471Z" />
  <path
    d="M40.0001 20.5882C40.0001 26.436 35.2596 31.1765 29.4118 31.1765C23.5641 31.1765 18.8236 26.436 18.8236 20.5882C18.8236 14.7405 23.5641 10 29.4118 10C35.2596 10 40.0001 14.7405 40.0001 20.5882Z" />
</svg>