<svg width="13" height="16" viewBox="0 0 13 16" fill="none" xmlns="http://www.w3.org/2000/svg">
	<path d="M11.6562 14H4.34375V4.65625H11.6562V14ZM11.6562 3.34375H4.34375C3.96875 3.34375 3.64583 3.46875 3.375 3.71875C3.125 3.96875 3 4.28125 3 4.65625V14C3 14.375 3.125 14.6875 3.375 14.9375C3.64583 15.1875 3.96875 15.3229 4.34375 15.3438H11.6562C12.0312 15.3229 12.3438 15.1875 12.5938 14.9375C12.8646 14.6875 13 14.375 13 14V4.65625C13 4.28125 12.8646 3.96875 12.5938 3.71875C12.3438 3.46875 12.0312 3.34375 11.6562 3.34375ZM9.65625 0.65625H1.65625C1.28125 0.677083 0.96875 0.8125 0.71875 1.0625C0.46875 1.3125 0.34375 1.625 0.34375 2V11.3438H1.65625V2H9.65625V0.65625Z" />
</svg>
