<svg width="40" height="40" viewBox="0 0 40 40" fill="none" xmlns="http://www.w3.org/2000/svg">
  <path d="M37.6563 37.6564H34.5272V40.0002H40V34.5273H37.6563V37.6564Z" />
  <path d="M2.34375 2.34375H5.47273V0H0V5.47273H2.34375V2.34375Z"  />
  <path d="M2.34375 34.5273H0V40.0002H5.47273V37.6564H2.34375V34.5273Z" />
  <path d="M34.5272 0V2.34375H37.6563V5.47273H40V0H34.5272Z" />
  <path d="M4.32312 34.5374H35.5908V30.2364C35.5908 27.8576 34.0648 25.7836 31.7937 25.0757L25.0641 22.9782V20.3345C26.8511 18.8596 27.9919 16.6285 27.9919 14.1359V11.8104C27.9919 7.37992 24.3874 3.77539 19.9569 3.77539C15.5265 3.77539 11.9219 7.37992 11.9219 11.8104V14.1359C11.9219 16.6285 13.0628 18.8596 14.8498 20.3345V22.9784L8.12023 25.0759C5.84906 25.7838 4.32312 27.8577 4.32312 30.2366V34.5374ZM14.2657 14.1359V11.8104C14.2657 8.67227 16.8188 6.11914 19.9569 6.11914C23.0951 6.11914 25.6482 8.67227 25.6482 11.8104V14.1359C25.6482 17.2741 23.0951 19.8272 19.9569 19.8272C16.8188 19.8272 14.2657 17.2741 14.2657 14.1359ZM6.66687 30.2365C6.66687 28.8891 7.53117 27.7144 8.81757 27.3134L17.1934 24.7027V21.6812C18.0555 21.9979 18.9863 22.1709 19.9569 22.1709C20.9274 22.1709 21.8583 21.9979 22.7203 21.6812V24.7027L31.0962 27.3134C32.3826 27.7144 33.2469 28.8891 33.2469 30.2365V32.1937H6.66687V30.2365Z" />
  <path d="M23.5968 12.1846L21.9395 10.5273L19.1791 13.2878L18.1791 12.2878L16.5218 13.9451L19.1791 16.6023L23.5968 12.1846Z" />
</svg>