<svg width="40" height="40" viewBox="0 0 40 40" fill="none" xmlns="http://www.w3.org/2000/svg">
  <path d="M2.47423 2.47423H8.74227V0H0V8.74227H2.47423V2.47423Z" />
  <path d="M31.2577 0V2.47423H37.5258V8.74227H40V0H31.2577Z" />
  <path d="M23.7658 0H16.2606V2.47423H23.7658V0Z" />
  <path d="M23.7658 37.5254H16.2606V39.9996H23.7658V37.5254Z" />
  <path d="M37.5258 37.5259H31.2577V40.0001H40V31.2578H37.5258V37.5259Z" />
  <path d="M40 16.248H37.5258V23.7532H40V16.248Z" />
  <path d="M2.47423 16.248H0V23.7532H2.47423V16.248Z" />
  <path d="M3.00669 30.2865L0.241821 39.758L9.71333 36.9931L27.576 19.1304L20.8695 12.4238L3.00669 30.2865ZM8.41172 34.7955L3.8819 36.1179L5.20421 31.5881L16.8061 19.9862L20.0136 23.1937L8.41172 34.7955ZM21.7631 21.4442L18.5557 18.2367L20.8695 15.923L24.077 19.1305L21.7631 21.4442Z" />
</svg>