<svg width="20" height="16" viewBox="0 0 20 16" fill="none" xmlns="http://www.w3.org/2000/svg">
  <path d="M9.84375 5L12.5 7.61719V7.5C12.474 6.79688 12.2266 6.21094 11.7578 5.74219C11.2891 5.27344 10.7031 5.02604 10 5H9.84375ZM6.28906 5.66406L7.57812 6.95312C7.52604 7.13542 7.5 7.31771 7.5 7.5C7.52604 8.20312 7.77344 8.78906 8.24219 9.25781C8.71094 9.72656 9.29688 9.97396 10 10C10.1823 10 10.3646 9.97396 10.5469 9.92188L11.8359 11.2109C11.263 11.4974 10.651 11.6536 10 11.6797C8.82812 11.6536 7.83854 11.25 7.03125 10.4688C6.25 9.66146 5.84635 8.67188 5.82031 7.5C5.84635 6.84896 6.0026 6.23698 6.28906 5.66406ZM1.67969 1.05469L3.55469 2.96875L3.94531 3.32031C2.53906 4.41406 1.4974 5.80729 0.820312 7.5C1.57552 9.34896 2.76042 10.8464 4.375 11.9922C6.01562 13.138 7.89062 13.724 10 13.75C11.3021 13.75 12.513 13.5156 13.6328 13.0469L16.4453 15.8203L17.5 14.7656L2.73438 0L1.67969 1.05469ZM10 3.32031C11.1719 3.34635 12.1484 3.76302 12.9297 4.57031C13.737 5.35156 14.1536 6.32812 14.1797 7.5C14.1797 8.04688 14.0755 8.55469 13.8672 9.02344L16.2891 11.4453C17.5651 10.3776 18.5286 9.0625 19.1797 7.5C18.4245 5.65104 17.2266 4.15365 15.5859 3.00781C13.9714 1.86198 12.1094 1.27604 10 1.25C8.82812 1.25 7.72135 1.44531 6.67969 1.83594L8.47656 3.63281C8.94531 3.45052 9.45312 3.34635 10 3.32031Z" />
</svg>
