<svg width="40" height="41" viewBox="0 0 40 41" fill="none" xmlns="http://www.w3.org/2000/svg">
  <path
    d="M39.3488 21.3721L30.5469 17.0075V5.9375C30.5469 5.93048 30.5463 5.92346 30.5463 5.91645C30.5377 5.4834 30.2951 5.09186 29.9075 4.89411C29.9048 4.89258 29.902 4.89075 29.899 4.88922L20.524 0.201721C20.1941 0.0369263 19.8059 0.0369263 19.476 0.201721C17.4426 1.21857 10.1627 4.8581 10.0925 4.89411C9.69208 5.09857 9.45312 5.50781 9.45312 5.9375V17.0075L0.651245 21.3721C0.263367 21.5634 0 21.969 0 22.4219V34.2188C0 34.664 0.25238 35.0708 0.651245 35.2686L10.1044 39.9561C10.1105 39.9591 10.1172 39.9613 10.1233 39.9643C10.4565 40.1224 10.8365 40.1111 11.149 39.9545L20 35.5289L28.851 39.9545C29.1641 40.1114 29.5453 40.1218 29.8767 39.9643C29.8828 39.9613 29.8895 39.9591 29.8956 39.9561L39.3488 35.2686C39.7476 35.0708 40 34.664 40 34.2188V22.4219C40 21.9873 39.7552 21.575 39.3488 21.3721ZM10.6229 25.8002L3.80981 22.4219L10.6229 19.0436L17.3798 22.4219L10.6229 25.8002ZM21.1719 11.3492L28.2031 7.83356V17.0102L21.1719 20.5258V11.3492ZM18.8281 20.5258L11.7969 17.0102V7.83356L18.8281 11.3492V20.5258ZM21.1719 24.3179L28.2031 27.8336V37.0102L21.1719 33.4946V24.3179ZM29.3771 25.8002L22.6202 22.4219L29.3771 19.0436L36.1902 22.4219L29.3771 25.8002ZM20 2.56012L26.7548 5.9375L20 9.31489L13.2452 5.9375L20 2.56012ZM2.34375 24.3109L9.45312 27.8363V37.0172L2.34375 33.4918V24.3109ZM18.8281 33.4946L11.7969 37.0102V27.8336L18.8281 24.3179V33.4946ZM37.6562 33.4918L30.5469 37.0172V27.8363L37.6562 24.3109V33.4918Z" />
</svg>