<svg width="20" height="13" viewBox="0 0 20 13" fill="none" xmlns="http://www.w3.org/2000/svg">
  <path d="M10 4C9.29688 4.02604 8.71094 4.27344 8.24219 4.74219C7.77344 5.21094 7.53906 5.79688 7.53906 6.5C7.53906 7.20312 7.77344 7.78906 8.24219 8.25781C8.71094 8.72656 9.29688 8.96094 10 8.96094C10.7031 8.96094 11.2891 8.72656 11.7578 8.25781C12.2266 7.78906 12.4609 7.20312 12.4609 6.5C12.4609 5.79688 12.2266 5.21094 11.7578 4.74219C11.2891 4.27344 10.7031 4.02604 10 4ZM10 10.6797C8.82812 10.6536 7.83854 10.25 7.03125 9.46875C6.25 8.66146 5.84635 7.67188 5.82031 6.5C5.84635 5.32812 6.25 4.35156 7.03125 3.57031C7.83854 2.76302 8.82812 2.34635 10 2.32031C11.1719 2.34635 12.1484 2.76302 12.9297 3.57031C13.737 4.35156 14.1536 5.32812 14.1797 6.5C14.1536 7.67188 13.737 8.66146 12.9297 9.46875C12.1484 10.25 11.1719 10.6536 10 10.6797ZM10 0.25C7.89062 0.276042 6.01562 0.861979 4.375 2.00781C2.76042 3.15365 1.57552 4.65104 0.820312 6.5C1.57552 8.34896 2.76042 9.84635 4.375 10.9922C6.01562 12.138 7.89062 12.724 10 12.75C12.1094 12.724 13.9714 12.138 15.5859 10.9922C17.2266 9.84635 18.4245 8.34896 19.1797 6.5C18.4245 4.65104 17.2266 3.15365 15.5859 2.00781C13.9714 0.861979 12.1094 0.276042 10 0.25Z" />
</svg>
