<svg width="40" height="40" viewBox="0 0 40 40" fill="none" xmlns="http://www.w3.org/2000/svg">
  <g clip-path="url(#clip0_3245_13849)">
    <path d="M20 30.5469C24.5232 30.5469 28.2031 26.867 28.2031 22.3438V14.1406H25.8594V10.5469C25.8594 7.31602 23.2309 4.6875 20 4.6875C16.7691 4.6875 14.1406 7.31602 14.1406 10.5469V14.1406H11.7969V22.3438C11.7969 26.867 15.4768 30.5469 20 30.5469ZM16.4844 10.5469C16.4844 8.60836 18.0615 7.03125 20 7.03125C21.9385 7.03125 23.5156 8.60836 23.5156 10.5469V14.1406H16.4844V10.5469ZM14.1406 16.4844H25.8594V22.3438C25.8594 25.5746 23.2309 28.2031 20 28.2031C16.7691 28.2031 14.1406 25.5746 14.1406 22.3438V16.4844Z" />
    <path d="M19.678 39.908L20 40L20.322 39.908C30.5025 36.9993 37.5781 27.6566 37.5781 16.9998V2.34375H32.2041L29.8604 0H10.1396L7.79586 2.34375H2.42188V16.9998C2.42188 27.5882 9.43078 36.9802 19.678 39.908ZM4.76562 4.6875H8.76664L11.1104 2.34375H28.8896L31.2334 4.6875H35.2344V16.9998C35.2344 26.4316 28.9866 34.8375 20 37.5597C11.0134 34.8374 4.76562 26.4316 4.76562 16.9998V4.6875Z" />
    <path d="M18.8281 18.8281H21.1719V25.8594H18.8281V18.8281Z" />
  </g>
  <defs>
    <clipPath id="clip0_3245_13849">
      <rect width="40" height="40" />
    </clipPath>
  </defs>
</svg>