<svg width="234" height="52" viewBox="0 0 234 52" fill="none" xmlns="http://www.w3.org/2000/svg">
  <g clip-path="url(#clip0_2773_7891)">
    <path
      d="M78.7343 -1.90735e-06H61.2808L47.1293 51.9953H63.3752L64.9649 44.4197H74.9417L76.5267 51.9953H92.7773L78.7343 -1.90735e-06ZM66.4697 32.7318L69.4745 18.1323H70.4557L73.4605 32.7457L66.4697 32.7318Z"
      fill="black" />
    <path
      d="M91.848 -1.90735e-06H106.735L117.241 24.4422V-1.90735e-06H132.336V52H117.618L106.962 27.0385V52H91.8669L91.848 -1.90735e-06Z"
      fill="black" />
    <path
      d="M145.695 52L131.411 -1.90735e-06H147.449L154.025 29.1202L160.525 -1.90735e-06H176.564L162.247 52H145.695Z"
      fill="black" />
    <path
      d="M175.587 -1.90735e-06H203.419V15.0817H191.461V19.2543H201.72V32.1059H191.461V36.9183H203.381V52H175.55L175.587 -1.90735e-06Z"
      fill="black" />
    <path d="M207.022 -1.90735e-06H222.891V36.9183H234.005V52H207.022V-1.90735e-06Z" fill="black" />
    <path
      d="M24.6425 -5.72205e-06H7.62939e-06V19.4722H28.303C29.9862 19.4734 31.5999 20.1314 32.7896 21.3016C33.9793 22.4718 34.6476 24.0583 34.6476 25.7126C34.6476 27.3668 33.9793 28.9534 32.7896 30.1235C31.5999 31.2937 29.9862 31.9517 28.303 31.9529H7.62939e-06V52.0093H24.6425C44.4546 52.0093 52.9833 39.9551 52.9833 26.0093C52.9833 14.3352 47.3179 -5.72205e-06 24.6425 -5.72205e-06Z"
      fill="black" />
  </g>
  <defs>
    <clipPath id="clip0_2773_7891">
      <rect width="234" height="52" fill="white" />
    </clipPath>
  </defs>
</svg>